<svg id="Capa_1" enable-background="new 0 0 511.889 511.889" height="512" viewBox="0 0 511.889 511.889" width="512" xmlns="http://www.w3.org/2000/svg"><path d="m250.834 249.753-194.962 118.511c-6.317 3.84-6.301 13.013.029 16.831l194.962 117.592c3.125 1.885 7.037 1.885 10.162 0l194.962-117.592c6.33-3.818 6.346-12.991.029-16.831l-194.961-118.511c-3.14-1.909-7.081-1.909-10.221 0z" fill="#05f2a7"/><path d="m231.898 446.664c-52.771-31.829-52.903-108.31-.242-140.321l61.248-37.23-31.849-19.36c-3.14-1.908-7.081-1.908-10.22 0l-194.963 118.511c-6.317 3.84-6.301 13.013.029 16.831l194.962 117.592c3.125 1.885 7.037 1.885 10.162 0l31.878-19.227z" fill="#13e29d"/><path d="m250.834 173.149-194.962 118.511c-6.317 3.84-6.301 13.013.029 16.831l194.962 117.592c3.125 1.885 7.037 1.885 10.162 0l194.962-117.592c6.33-3.818 6.346-12.991.029-16.831l-194.961-118.511c-3.14-1.909-7.081-1.909-10.221 0z" fill="#65daf9"/><path d="m231.898 370.06c-52.771-31.829-52.903-108.31-.242-140.321l61.248-37.23-31.849-19.36c-3.14-1.908-7.081-1.908-10.22 0l-194.963 118.511c-6.317 3.84-6.301 13.013.029 16.831l194.962 117.592c3.125 1.885 7.037 1.885 10.162 0l31.878-19.227z" fill="#1acff8"/><path d="m250.834 91.545-194.962 118.511c-6.317 3.84-6.301 13.013.029 16.831l194.962 117.592c3.125 1.885 7.037 1.885 10.162 0l194.962-117.592c6.33-3.818 6.346-12.991.029-16.831l-194.961-118.511c-3.14-1.909-7.081-1.909-10.221 0z" fill="#fd6773"/><path d="m231.898 288.456c-52.771-31.829-52.903-108.31-.242-140.321l61.248-37.23-31.849-19.36c-3.14-1.909-7.081-1.909-10.22 0l-194.963 118.511c-6.317 3.84-6.301 13.013.029 16.831l194.962 117.592c3.125 1.885 7.037 1.885 10.162 0l31.878-19.227z" fill="#fc4d5a"/><path d="m250.834 8.941-194.962 118.511c-6.317 3.84-6.301 13.013.029 16.831l194.962 117.592c3.125 1.885 7.037 1.885 10.162 0l194.962-117.592c6.33-3.818 6.346-12.991.029-16.831l-194.961-118.511c-3.14-1.909-7.081-1.909-10.221 0z" fill="#6dd8e6"/><path d="m231.898 205.852c-52.771-31.829-52.903-108.31-.242-140.321l61.248-37.23-31.849-19.36c-3.14-1.908-7.081-1.908-10.22 0l-194.963 118.511c-6.317 3.84-6.301 13.013.029 16.831l194.962 117.592c3.125 1.885 7.037 1.885 10.162 0l31.878-19.227z" fill="#16c6db"/><path d="m98.801 137.459 156.137 94.175c.619.373 1.393.373 2.012 0l79.606-48.015c1.253-.756 1.256-2.572.006-3.332l-155.841-94.73c-.622-.378-1.402-.378-2.023 0l-79.902 48.57c-1.251.76-1.248 2.576.005 3.332z" fill="#16c6db"/><path d="m180.721 85.557c-.621-.378-1.402-.378-2.023 0l-79.902 48.57c-1.25.76-1.247 2.576.006 3.332l156.137 94.176c.619.373 1.393.373 2.012 0l8.847-5.336-33.899-20.447c-39.022-23.536-49.252-71.483-30.647-107.815z" fill="#17b0cb"/><path d="m94.928 143.881 156.138 94.177c1.505.907 3.191 1.36 4.879 1.36 1.687 0 3.375-.453 4.879-1.361l79.606-48.015c2.854-1.722 4.562-4.74 4.567-8.074.006-3.333-1.691-6.357-4.54-8.089l-155.847-94.735c-3.023-1.833-6.779-1.833-9.808.004l-79.905 48.572c-2.848 1.732-4.544 4.757-4.538 8.09s1.715 6.35 4.569 8.071zm84.781-50.162 145.121 88.215-68.886 41.549-145.417-87.71z"/><path d="m219.64 73.58 98.826 60.073c1.217.739 2.561 1.092 3.888 1.092 2.533 0 5.004-1.283 6.416-3.605 2.152-3.539 1.026-8.152-2.513-10.305l-98.826-60.073c-3.54-2.149-8.154-1.025-10.305 2.514-2.151 3.538-1.025 8.152 2.514 10.304z"/><path d="m380.815 153.999-32.737-19.899c-3.54-2.15-8.152-1.025-10.304 2.514s-1.026 8.153 2.513 10.305l32.737 19.899c1.217.739 2.561 1.092 3.888 1.092 2.533 0 5.004-1.283 6.416-3.605 2.152-3.54 1.026-8.155-2.513-10.306z"/><path d="m242.66 48.766 34.852 21.186c1.217.739 2.561 1.092 3.888 1.092 2.533 0 5.004-1.283 6.416-3.605 2.152-3.539 1.026-8.152-2.513-10.305l-34.853-21.186c-3.54-2.15-8.152-1.025-10.304 2.514s-1.025 8.151 2.514 10.304z"/><path d="m298.228 82.544 105.901 64.374c1.217.739 2.561 1.092 3.888 1.092 2.533 0 5.004-1.283 6.416-3.605 2.152-3.539 1.026-8.152-2.513-10.305l-105.901-64.374c-3.539-2.149-8.152-1.025-10.304 2.514s-1.027 8.152 2.513 10.304z"/><path d="m468.245 299.838c.01-6.117-3.104-11.667-8.333-14.846l-43.222-26.274 43.171-26.039c5.239-3.16 8.373-8.699 8.383-14.817s-3.104-11.667-8.332-14.845l-43.222-26.274 43.171-26.039c5.239-3.16 8.373-8.699 8.383-14.816.01-6.118-3.104-11.667-8.333-14.846l-194.961-118.511c-5.556-3.375-12.456-3.375-18.012 0l-194.962 118.512c-5.228 3.179-8.342 8.728-8.332 14.846.011 6.117 3.145 11.656 8.384 14.816l43.171 26.039-43.222 26.274c-5.228 3.178-8.343 8.727-8.333 14.845s3.145 11.657 8.384 14.817l43.171 26.039-43.223 26.274c-5.228 3.179-8.342 8.729-8.332 14.846s3.144 11.656 8.383 14.816l39.043 23.549-39.095 23.764c-5.228 3.179-8.343 8.729-8.332 14.847s3.146 11.656 8.384 14.815l63.365 38.219v56.012l-15.85-15.85c-2.928-2.929-7.677-2.93-10.606-.001-2.929 2.93-2.929 7.678 0 10.606l29.075 29.076c1.406 1.407 3.314 2.197 5.303 2.197s3.897-.79 5.303-2.196l29.383-29.384c2.929-2.93 2.929-7.678 0-10.607-2.929-2.928-7.678-2.928-10.606 0l-17.002 17.003v-47.809l116.597 70.326c2.762 1.666 5.858 2.499 8.955 2.499 3.096 0 6.193-.833 8.955-2.499l115.597-69.722v47.206l-17.002-17.003c-2.929-2.928-7.678-2.928-10.606 0-2.929 2.93-2.929 7.678 0 10.607l29.383 29.384c1.406 1.406 3.314 2.196 5.303 2.196s3.897-.79 5.303-2.197l29.075-29.076c2.929-2.929 2.929-7.677 0-10.606-2.929-2.928-7.678-2.929-10.606.001l-15.85 15.85v-55.409l64.364-38.821c5.239-3.16 8.373-8.698 8.384-14.816s-3.104-11.668-8.333-14.847l-39.094-23.764 39.043-23.549c5.24-3.162 8.374-8.701 8.385-14.818zm-16.123-84.002c.979.595 1.124 1.509 1.123 2.001s-.149 1.406-1.131 1.999l-53.669 32.37c-.013.008-.027.016-.04.024l-2.909 1.754v-64.458l6.698-4.04zm-393.478-79.974c0-.491.144-1.406 1.124-2.001l194.962-118.511c.749-.455 1.681-.455 2.429 0l194.962 118.512c.98.595 1.125 1.51 1.124 2.001-.001.492-.149 1.406-1.131 1.999l-53.666 32.369c-.016.01-.032.02-.048.029l-141.248 85.194c-.745.449-1.67.449-2.415 0l-141.241-85.19c-.019-.011-.038-.023-.058-.035l-53.662-32.366c-.983-.594-1.131-1.509-1.132-2.001zm0 81.975c0-.492.144-1.406 1.124-2.001l49.926-30.349 5.698 3.437v64.458l-1.912-1.153c-.012-.007-.023-.014-.035-.021l-53.67-32.371c-.982-.594-1.13-1.508-1.131-2zm0 81.975c0-.491.144-1.406 1.124-2.001l49.926-30.349 5.698 3.437v64.458l-6.046-3.646c-.009-.006-.018-.011-.028-.017l-49.544-29.883c-.981-.593-1.129-1.507-1.13-1.999zm393.477 74.973c.98.595 1.125 1.51 1.124 2.002s-.149 1.405-1.131 1.998l-56.618 34.149v-59.458l10.827-6.53zm-.007-72.974-49.546 29.884c-.007.004-.014.009-.022.013l-7.05 4.252v-12.113c0-4.143-3.358-7.5-7.5-7.5s-7.5 3.357-7.5 7.5v21.16l-123.344 74.396c-.745.449-1.67.449-2.415 0l-43.421-26.189c-3.547-2.141-8.156-.998-10.296 2.548-2.139 3.547-.998 8.157 2.549 10.296l43.421 26.189c2.762 1.666 5.858 2.499 8.955 2.499 3.096 0 6.193-.833 8.955-2.499l115.597-69.723v59.458l-123.344 74.396c-.745.449-1.67.449-2.415 0l-124.344-74.999v-24.602c0-4.143-3.358-7.5-7.5-7.5s-7.5 3.357-7.5 7.5v15.554l-55.618-33.546c-.981-.592-1.129-1.505-1.13-1.997 0-.492.144-1.407 1.124-2.002l45.799-27.839 9.826 5.927v18.903c0 4.143 3.358 7.5 7.5 7.5s7.5-3.357 7.5-7.5v-9.856l47.364 28.568c1.212.731 2.547 1.079 3.866 1.079 2.542 0 5.021-1.292 6.43-3.627 2.139-3.547.998-8.157-2.549-10.296l-55.111-33.241v-64.458l116.597 70.326c2.762 1.666 5.858 2.499 8.955 2.499 3.096 0 6.193-.833 8.955-2.499l32.955-19.877c3.547-2.139 4.688-6.749 2.549-10.296-2.14-3.547-6.75-4.689-10.296-2.548l-32.955 19.877c-.745.449-1.67.449-2.415 0l-124.344-74.999v-64.458l116.597 70.326c2.762 1.666 5.858 2.499 8.955 2.499 3.096 0 6.193-.833 8.955-2.499l115.597-69.723v64.458l-64.633 38.983c-3.547 2.139-4.688 6.749-2.549 10.296 1.409 2.335 3.888 3.627 6.43 3.627 1.319 0 2.655-.348 3.866-1.079l56.886-34.311v15.992c0 4.143 3.358 7.5 7.5 7.5s7.5-3.357 7.5-7.5v-25.04l6.698-4.04 49.926 30.349c.98.595 1.125 1.51 1.124 2.001-.004.494-.152 1.408-1.134 2.001z"/></svg>